<svg width="170" height="54" viewBox="0 0 170 54" fill="none" xmlns="http://www.w3.org/2000/svg">
<g clip-path="url(#clip0_0_159)">
<rect width="170" height="54" rx="27" fill="#142D71"/>
<path d="M38.6563 33.7009C38.308 34.817 37.7589 35.933 37.0089 37.0491C35.8571 38.7991 34.7098 39.6741 33.567 39.6741C33.1295 39.6741 32.5045 39.5313 31.692 39.2455C30.9241 38.9598 30.25 38.817 29.6696 38.817C29.125 38.817 28.4911 38.9643 27.7679 39.2589C27.0446 39.5625 26.4554 39.7143 26 39.7143C24.6429 39.7143 23.2991 38.558 21.9688 36.2455C20.6562 33.9152 20 31.6696 20 29.5089C20 27.4732 20.5045 25.8036 21.5134 24.5C22.5223 23.2143 23.7902 22.5714 25.317 22.5714C25.9598 22.5714 26.75 22.7054 27.6875 22.9732C28.6161 23.2411 29.2321 23.375 29.5357 23.375C29.9375 23.375 30.5759 23.2232 31.4509 22.9196C32.3616 22.6161 33.1339 22.4643 33.7679 22.4643C34.8304 22.4643 35.7813 22.7545 36.6205 23.3348C37.0848 23.6562 37.5491 24.1027 38.0134 24.6741C37.308 25.2723 36.7991 25.7991 36.4866 26.2545C35.9063 27.0937 35.6161 28.0179 35.6161 29.0268C35.6161 30.1339 35.9241 31.1295 36.5402 32.0134C37.1563 32.8973 37.8616 33.4598 38.6563 33.7009ZM33.6205 17.9911C33.6205 18.5357 33.4911 19.1429 33.2321 19.8125C32.9643 20.4821 32.5491 21.0982 31.9866 21.6607C31.5045 22.1429 31.0223 22.4643 30.5402 22.625C30.2098 22.7232 29.7455 22.7991 29.1473 22.8527C29.1741 21.5223 29.5223 20.375 30.192 19.4107C30.8527 18.4554 31.9688 17.7946 33.5402 17.4286C33.5491 17.4554 33.558 17.5045 33.567 17.5759C33.5848 17.6473 33.5982 17.6964 33.6071 17.7232C33.6071 17.7589 33.6071 17.8036 33.6071 17.8571C33.6161 17.9107 33.6205 17.9554 33.6205 17.9911Z" fill="white"/>
<path d="M52.548 19C52.396 19 52.272 18.956 52.176 18.868C52.088 18.78 52.044 18.664 52.044 18.52V11.02C52.044 10.876 52.088 10.76 52.176 10.672C52.272 10.584 52.396 10.54 52.548 10.54H54.888C56.24 10.54 57.284 10.908 58.02 11.644C58.764 12.372 59.136 13.412 59.136 14.764C59.136 16.116 58.764 17.16 58.02 17.896C57.276 18.632 56.232 19 54.888 19H52.548ZM54.828 18.16C57.02 18.16 58.116 17.028 58.116 14.764C58.116 12.508 57.02 11.38 54.828 11.38H53.028V18.16H54.828ZM63.6186 19.084C63.0666 19.084 62.5786 18.96 62.1546 18.712C61.7386 18.464 61.4146 18.112 61.1826 17.656C60.9586 17.192 60.8466 16.656 60.8466 16.048C60.8466 15.44 60.9586 14.908 61.1826 14.452C61.4146 13.988 61.7386 13.632 62.1546 13.384C62.5786 13.136 63.0666 13.012 63.6186 13.012C64.1706 13.012 64.6586 13.136 65.0826 13.384C65.5066 13.632 65.8306 13.988 66.0546 14.452C66.2866 14.908 66.4026 15.44 66.4026 16.048C66.4026 16.656 66.2866 17.192 66.0546 17.656C65.8306 18.112 65.5066 18.464 65.0826 18.712C64.6586 18.96 64.1706 19.084 63.6186 19.084ZM63.6186 18.28C64.1946 18.28 64.6346 18.092 64.9386 17.716C65.2506 17.332 65.4066 16.776 65.4066 16.048C65.4066 15.336 65.2506 14.788 64.9386 14.404C64.6266 14.012 64.1866 13.816 63.6186 13.816C63.0506 13.816 62.6106 14.012 62.2986 14.404C61.9866 14.788 61.8306 15.336 61.8306 16.048C61.8306 16.768 61.9826 17.32 62.2866 17.704C62.5986 18.088 63.0426 18.28 63.6186 18.28ZM76.1961 13.348C76.2761 13.156 76.4081 13.06 76.5921 13.06C76.7121 13.06 76.8201 13.1 76.9161 13.18C77.0121 13.26 77.0601 13.36 77.0601 13.48C77.0601 13.536 77.0481 13.596 77.0241 13.66L75.0321 18.7C74.9841 18.804 74.9121 18.888 74.8161 18.952C74.7281 19.008 74.6281 19.036 74.5161 19.036C74.4121 19.036 74.3121 19.008 74.2161 18.952C74.1281 18.888 74.0601 18.804 74.0121 18.7L72.3561 14.488L70.7121 18.7C70.6721 18.804 70.6041 18.888 70.5081 18.952C70.4121 19.008 70.3081 19.036 70.1961 19.036C70.0921 19.036 69.9921 19.008 69.8961 18.952C69.8001 18.888 69.7281 18.804 69.6801 18.7L67.6881 13.672C67.6641 13.608 67.6521 13.552 67.6521 13.504C67.6521 13.376 67.7041 13.268 67.8081 13.18C67.9201 13.092 68.0401 13.048 68.1681 13.048C68.3601 13.048 68.4961 13.144 68.5761 13.336L70.2201 17.764L71.9121 13.372C71.9601 13.268 72.0241 13.188 72.1041 13.132C72.1921 13.076 72.2841 13.048 72.3801 13.048C72.4841 13.048 72.5761 13.076 72.6561 13.132C72.7441 13.188 72.8081 13.268 72.8481 13.372L74.5401 17.752L76.1961 13.348ZM81.6692 13.012C83.0692 13.012 83.7692 13.784 83.7692 15.328V18.58C83.7692 18.732 83.7252 18.852 83.6372 18.94C83.5572 19.02 83.4412 19.06 83.2892 19.06C83.1372 19.06 83.0172 19.02 82.9292 18.94C82.8412 18.852 82.7972 18.732 82.7972 18.58V15.388C82.7972 14.844 82.6892 14.448 82.4732 14.2C82.2652 13.952 81.9292 13.828 81.4652 13.828C80.9292 13.828 80.5012 13.992 80.1812 14.32C79.8612 14.648 79.7012 15.092 79.7012 15.652V18.58C79.7012 18.732 79.6572 18.852 79.5692 18.94C79.4892 19.02 79.3732 19.06 79.2212 19.06C79.0692 19.06 78.9492 19.02 78.8612 18.94C78.7732 18.852 78.7292 18.732 78.7292 18.58V13.516C78.7292 13.372 78.7732 13.256 78.8612 13.168C78.9492 13.08 79.0692 13.036 79.2212 13.036C79.3652 13.036 79.4772 13.08 79.5572 13.168C79.6452 13.256 79.6892 13.368 79.6892 13.504V14.116C79.8812 13.756 80.1492 13.484 80.4932 13.3C80.8372 13.108 81.2292 13.012 81.6692 13.012ZM86.465 19.06C86.321 19.06 86.201 19.02 86.105 18.94C86.017 18.852 85.973 18.732 85.973 18.58V10.96C85.973 10.808 86.017 10.692 86.105 10.612C86.201 10.524 86.321 10.48 86.465 10.48C86.601 10.48 86.713 10.524 86.801 10.612C86.897 10.692 86.945 10.808 86.945 10.96V18.58C86.945 18.732 86.897 18.852 86.801 18.94C86.713 19.02 86.601 19.06 86.465 19.06ZM91.6096 19.084C91.0576 19.084 90.5696 18.96 90.1456 18.712C89.7296 18.464 89.4056 18.112 89.1736 17.656C88.9496 17.192 88.8376 16.656 88.8376 16.048C88.8376 15.44 88.9496 14.908 89.1736 14.452C89.4056 13.988 89.7296 13.632 90.1456 13.384C90.5696 13.136 91.0576 13.012 91.6096 13.012C92.1616 13.012 92.6496 13.136 93.0736 13.384C93.4976 13.632 93.8216 13.988 94.0456 14.452C94.2776 14.908 94.3936 15.44 94.3936 16.048C94.3936 16.656 94.2776 17.192 94.0456 17.656C93.8216 18.112 93.4976 18.464 93.0736 18.712C92.6496 18.96 92.1616 19.084 91.6096 19.084ZM91.6096 18.28C92.1856 18.28 92.6256 18.092 92.9296 17.716C93.2416 17.332 93.3976 16.776 93.3976 16.048C93.3976 15.336 93.2416 14.788 92.9296 14.404C92.6176 14.012 92.1776 13.816 91.6096 13.816C91.0416 13.816 90.6016 14.012 90.2896 14.404C89.9776 14.788 89.8216 15.336 89.8216 16.048C89.8216 16.768 89.9736 17.32 90.2776 17.704C90.5896 18.088 91.0336 18.28 91.6096 18.28ZM98.6534 13.012C100.117 13.012 100.849 13.78 100.849 15.316V18.58C100.849 18.724 100.805 18.84 100.717 18.928C100.637 19.016 100.525 19.06 100.381 19.06C100.237 19.06 100.121 19.016 100.033 18.928C99.9454 18.84 99.9014 18.724 99.9014 18.58V18.004C99.7494 18.348 99.5174 18.616 99.2054 18.808C98.8934 18.992 98.5334 19.084 98.1254 19.084C97.7494 19.084 97.4014 19.008 97.0814 18.856C96.7694 18.704 96.5214 18.492 96.3374 18.22C96.1534 17.948 96.0614 17.648 96.0614 17.32C96.0614 16.88 96.1734 16.54 96.3974 16.3C96.6214 16.052 96.9894 15.876 97.5014 15.772C98.0134 15.66 98.7254 15.604 99.6374 15.604H99.9014V15.208C99.9014 14.728 99.8014 14.376 99.6014 14.152C99.4094 13.928 99.0934 13.816 98.6534 13.816C98.1094 13.816 97.5574 13.964 96.9974 14.26C96.7814 14.396 96.6294 14.464 96.5414 14.464C96.4454 14.464 96.3654 14.428 96.3014 14.356C96.2374 14.284 96.2054 14.192 96.2054 14.08C96.2054 13.968 96.2374 13.872 96.3014 13.792C96.3734 13.704 96.4854 13.616 96.6374 13.528C96.9174 13.368 97.2334 13.244 97.5854 13.156C97.9454 13.06 98.3014 13.012 98.6534 13.012ZM98.2574 18.316C98.7374 18.316 99.1294 18.156 99.4334 17.836C99.7454 17.508 99.9014 17.088 99.9014 16.576V16.228H99.6854C98.9814 16.228 98.4454 16.26 98.0774 16.324C97.7094 16.38 97.4454 16.48 97.2854 16.624C97.1334 16.76 97.0574 16.964 97.0574 17.236C97.0574 17.548 97.1694 17.808 97.3934 18.016C97.6254 18.216 97.9134 18.316 98.2574 18.316ZM107.744 10.48C107.896 10.48 108.016 10.524 108.104 10.612C108.192 10.7 108.236 10.812 108.236 10.948V18.58C108.236 18.724 108.192 18.84 108.104 18.928C108.016 19.016 107.896 19.06 107.744 19.06C107.592 19.06 107.472 19.016 107.384 18.928C107.304 18.84 107.264 18.724 107.264 18.58V17.932C107.088 18.3 106.828 18.584 106.484 18.784C106.148 18.984 105.752 19.084 105.296 19.084C104.784 19.084 104.332 18.956 103.94 18.7C103.548 18.444 103.244 18.088 103.028 17.632C102.812 17.168 102.704 16.632 102.704 16.024C102.704 15.424 102.812 14.896 103.028 14.44C103.244 13.984 103.548 13.632 103.94 13.384C104.332 13.136 104.784 13.012 105.296 13.012C105.752 13.012 106.148 13.112 106.484 13.312C106.828 13.512 107.088 13.796 107.264 14.164V10.948C107.264 10.804 107.304 10.692 107.384 10.612C107.472 10.524 107.592 10.48 107.744 10.48ZM105.488 18.28C106.056 18.28 106.492 18.088 106.796 17.704C107.108 17.312 107.264 16.76 107.264 16.048C107.264 15.336 107.108 14.788 106.796 14.404C106.492 14.02 106.056 13.828 105.488 13.828C104.92 13.828 104.476 14.02 104.156 14.404C103.844 14.788 103.688 15.328 103.688 16.024C103.688 16.736 103.844 17.292 104.156 17.692C104.476 18.084 104.92 18.28 105.488 18.28ZM116.401 19.084C115.849 19.084 115.361 18.96 114.937 18.712C114.521 18.464 114.197 18.112 113.965 17.656C113.741 17.192 113.629 16.656 113.629 16.048C113.629 15.44 113.741 14.908 113.965 14.452C114.197 13.988 114.521 13.632 114.937 13.384C115.361 13.136 115.849 13.012 116.401 13.012C116.953 13.012 117.441 13.136 117.865 13.384C118.289 13.632 118.613 13.988 118.837 14.452C119.069 14.908 119.185 15.44 119.185 16.048C119.185 16.656 119.069 17.192 118.837 17.656C118.613 18.112 118.289 18.464 117.865 18.712C117.441 18.96 116.953 19.084 116.401 19.084ZM116.401 18.28C116.977 18.28 117.417 18.092 117.721 17.716C118.033 17.332 118.189 16.776 118.189 16.048C118.189 15.336 118.033 14.788 117.721 14.404C117.409 14.012 116.969 13.816 116.401 13.816C115.833 13.816 115.393 14.012 115.081 14.404C114.769 14.788 114.613 15.336 114.613 16.048C114.613 16.768 114.765 17.32 115.069 17.704C115.381 18.088 115.825 18.28 116.401 18.28ZM123.997 13.012C125.397 13.012 126.097 13.784 126.097 15.328V18.58C126.097 18.732 126.053 18.852 125.965 18.94C125.885 19.02 125.769 19.06 125.617 19.06C125.465 19.06 125.345 19.02 125.257 18.94C125.169 18.852 125.125 18.732 125.125 18.58V15.388C125.125 14.844 125.017 14.448 124.801 14.2C124.593 13.952 124.257 13.828 123.793 13.828C123.257 13.828 122.829 13.992 122.509 14.32C122.189 14.648 122.029 15.092 122.029 15.652V18.58C122.029 18.732 121.985 18.852 121.897 18.94C121.817 19.02 121.701 19.06 121.549 19.06C121.397 19.06 121.277 19.02 121.189 18.94C121.101 18.852 121.057 18.732 121.057 18.58V13.516C121.057 13.372 121.101 13.256 121.189 13.168C121.277 13.08 121.397 13.036 121.549 13.036C121.693 13.036 121.805 13.08 121.885 13.168C121.973 13.256 122.017 13.368 122.017 13.504V14.116C122.209 13.756 122.477 13.484 122.821 13.3C123.165 13.108 123.557 13.012 123.997 13.012ZM134.518 18.292C134.798 18.316 134.938 18.444 134.938 18.676C134.938 18.812 134.886 18.916 134.782 18.988C134.686 19.052 134.538 19.076 134.338 19.06L134.014 19.036C133.374 18.988 132.902 18.796 132.598 18.46C132.294 18.124 132.142 17.616 132.142 16.936V13.924H131.338C131.202 13.924 131.094 13.892 131.014 13.828C130.942 13.756 130.906 13.664 130.906 13.552C130.906 13.432 130.942 13.336 131.014 13.264C131.094 13.192 131.202 13.156 131.338 13.156H132.142V11.8C132.142 11.648 132.186 11.532 132.274 11.452C132.362 11.364 132.482 11.32 132.634 11.32C132.778 11.32 132.894 11.364 132.982 11.452C133.07 11.532 133.114 11.648 133.114 11.8V13.156H134.446C134.574 13.156 134.674 13.192 134.746 13.264C134.826 13.336 134.866 13.432 134.866 13.552C134.866 13.664 134.826 13.756 134.746 13.828C134.674 13.892 134.574 13.924 134.446 13.924H133.114V16.984C133.114 17.424 133.202 17.744 133.378 17.944C133.562 18.136 133.834 18.244 134.194 18.268L134.518 18.292ZM139.272 13.012C139.96 13.012 140.48 13.208 140.832 13.6C141.184 13.984 141.36 14.56 141.36 15.328V18.58C141.36 18.732 141.316 18.852 141.228 18.94C141.14 19.02 141.024 19.06 140.88 19.06C140.728 19.06 140.608 19.02 140.52 18.94C140.432 18.852 140.388 18.732 140.388 18.58V15.352C140.388 14.832 140.28 14.448 140.064 14.2C139.856 13.952 139.52 13.828 139.056 13.828C138.52 13.828 138.092 13.992 137.772 14.32C137.452 14.648 137.292 15.092 137.292 15.652V18.58C137.292 18.732 137.248 18.852 137.16 18.94C137.08 19.02 136.964 19.06 136.812 19.06C136.66 19.06 136.54 19.02 136.452 18.94C136.364 18.852 136.32 18.732 136.32 18.58V10.948C136.32 10.812 136.364 10.7 136.452 10.612C136.548 10.524 136.668 10.48 136.812 10.48C136.964 10.48 137.08 10.524 137.16 10.612C137.248 10.692 137.292 10.804 137.292 10.948V14.092C137.484 13.74 137.752 13.472 138.096 13.288C138.44 13.104 138.832 13.012 139.272 13.012ZM148.088 17.644C148.176 17.644 148.252 17.68 148.316 17.752C148.38 17.824 148.412 17.916 148.412 18.028C148.412 18.228 148.272 18.412 147.992 18.58C147.704 18.748 147.4 18.876 147.08 18.964C146.76 19.044 146.448 19.084 146.144 19.084C145.24 19.084 144.524 18.816 143.996 18.28C143.476 17.744 143.216 17.004 143.216 16.06C143.216 15.46 143.332 14.932 143.564 14.476C143.796 14.012 144.12 13.652 144.536 13.396C144.96 13.14 145.44 13.012 145.976 13.012C146.736 13.012 147.34 13.26 147.788 13.756C148.236 14.252 148.46 14.924 148.46 15.772C148.46 15.932 148.428 16.048 148.364 16.12C148.3 16.192 148.196 16.228 148.052 16.228H144.188C144.26 17.604 144.912 18.292 146.144 18.292C146.456 18.292 146.724 18.252 146.948 18.172C147.172 18.084 147.412 17.968 147.668 17.824C147.876 17.704 148.016 17.644 148.088 17.644ZM145.988 13.768C145.476 13.768 145.064 13.928 144.752 14.248C144.448 14.568 144.268 15.02 144.212 15.604H147.608C147.592 15.012 147.444 14.56 147.164 14.248C146.884 13.928 146.492 13.768 145.988 13.768Z" fill="white"/>
<path d="M62.104 39.248C62.1467 39.3333 62.168 39.424 62.168 39.52C62.168 39.68 62.104 39.8133 61.976 39.92C61.8587 40.0267 61.7147 40.08 61.544 40.08C61.2773 40.08 61.0907 39.952 60.984 39.696L59.848 37.104H53.816L52.664 39.696C52.5573 39.952 52.3707 40.08 52.104 40.08C51.9333 40.08 51.784 40.0267 51.656 39.92C51.528 39.8027 51.464 39.664 51.464 39.504C51.464 39.4187 51.4853 39.3333 51.528 39.248L56.104 29.072C56.168 28.9227 56.264 28.8107 56.392 28.736C56.52 28.6613 56.6587 28.624 56.808 28.624C56.968 28.624 57.112 28.6667 57.24 28.752C57.368 28.8267 57.464 28.9333 57.528 29.072L62.104 39.248ZM54.296 36.016H59.368L56.824 30.272L54.296 36.016ZM68.345 32.016C69.0277 32.016 69.6303 32.1867 70.153 32.528C70.6757 32.8693 71.081 33.3493 71.369 33.968C71.657 34.576 71.801 35.2853 71.801 36.096C71.801 36.9067 71.657 37.616 71.369 38.224C71.081 38.8213 70.6757 39.2853 70.153 39.616C69.641 39.9467 69.0383 40.112 68.345 40.112C67.737 40.112 67.2037 39.9787 66.745 39.712C66.297 39.4453 65.9557 39.0667 65.721 38.576V42.336C65.721 42.528 65.6623 42.6773 65.545 42.784C65.4383 42.9013 65.2837 42.96 65.081 42.96C64.8783 42.96 64.7183 42.9013 64.601 42.784C64.4837 42.6667 64.425 42.5173 64.425 42.336V32.688C64.425 32.496 64.4837 32.3413 64.601 32.224C64.7183 32.1067 64.8783 32.048 65.081 32.048C65.2837 32.048 65.4383 32.1067 65.545 32.224C65.6623 32.3413 65.721 32.496 65.721 32.688V33.552C65.9557 33.0613 66.297 32.6827 66.745 32.416C67.2037 32.1493 67.737 32.016 68.345 32.016ZM68.089 39.04C68.8463 39.04 69.433 38.784 69.849 38.272C70.265 37.76 70.473 37.0347 70.473 36.096C70.473 35.1573 70.265 34.4267 69.849 33.904C69.433 33.3707 68.8463 33.104 68.089 33.104C67.3317 33.104 66.745 33.36 66.329 33.872C65.9237 34.384 65.721 35.1147 65.721 36.064C65.721 37.0133 65.9237 37.7493 66.329 38.272C66.745 38.784 67.3317 39.04 68.089 39.04ZM78.2575 32.016C78.9402 32.016 79.5428 32.1867 80.0655 32.528C80.5882 32.8693 80.9935 33.3493 81.2815 33.968C81.5695 34.576 81.7135 35.2853 81.7135 36.096C81.7135 36.9067 81.5695 37.616 81.2815 38.224C80.9935 38.8213 80.5882 39.2853 80.0655 39.616C79.5535 39.9467 78.9508 40.112 78.2575 40.112C77.6495 40.112 77.1162 39.9787 76.6575 39.712C76.2095 39.4453 75.8682 39.0667 75.6335 38.576V42.336C75.6335 42.528 75.5748 42.6773 75.4575 42.784C75.3508 42.9013 75.1962 42.96 74.9935 42.96C74.7908 42.96 74.6308 42.9013 74.5135 42.784C74.3962 42.6667 74.3375 42.5173 74.3375 42.336V32.688C74.3375 32.496 74.3962 32.3413 74.5135 32.224C74.6308 32.1067 74.7908 32.048 74.9935 32.048C75.1962 32.048 75.3508 32.1067 75.4575 32.224C75.5748 32.3413 75.6335 32.496 75.6335 32.688V33.552C75.8682 33.0613 76.2095 32.6827 76.6575 32.416C77.1162 32.1493 77.6495 32.016 78.2575 32.016ZM78.0015 39.04C78.7588 39.04 79.3455 38.784 79.7615 38.272C80.1775 37.76 80.3855 37.0347 80.3855 36.096C80.3855 35.1573 80.1775 34.4267 79.7615 33.904C79.3455 33.3707 78.7588 33.104 78.0015 33.104C77.2442 33.104 76.6575 33.36 76.2415 33.872C75.8362 34.384 75.6335 35.1147 75.6335 36.064C75.6335 37.0133 75.8362 37.7493 76.2415 38.272C76.6575 38.784 77.2442 39.04 78.0015 39.04ZM92.767 40.128C91.967 40.128 91.199 40.0107 90.463 39.776C89.7377 39.5307 89.1563 39.2053 88.719 38.8C88.559 38.6507 88.479 38.464 88.479 38.24C88.479 38.0907 88.5217 37.9627 88.607 37.856C88.6923 37.7387 88.7937 37.68 88.911 37.68C89.0497 37.68 89.199 37.7387 89.359 37.856C90.351 38.624 91.4817 39.008 92.751 39.008C93.6683 39.008 94.3723 38.832 94.863 38.48C95.3537 38.128 95.599 37.6267 95.599 36.976C95.599 36.6027 95.4817 36.304 95.247 36.08C95.0123 35.8453 94.703 35.6587 94.319 35.52C93.935 35.3813 93.4177 35.2373 92.767 35.088C91.8923 34.8853 91.1723 34.672 90.607 34.448C90.0523 34.224 89.599 33.904 89.247 33.488C88.9057 33.072 88.735 32.528 88.735 31.856C88.735 31.216 88.9057 30.6507 89.247 30.16C89.599 29.6587 90.0843 29.2747 90.703 29.008C91.3323 28.7307 92.047 28.592 92.847 28.592C93.5937 28.592 94.287 28.7093 94.927 28.944C95.5777 29.168 96.1217 29.4933 96.559 29.92C96.7297 30.0907 96.815 30.2773 96.815 30.48C96.815 30.6293 96.7723 30.7627 96.687 30.88C96.6017 30.9867 96.5003 31.04 96.383 31.04C96.2657 31.04 96.111 30.9813 95.919 30.864C95.3963 30.4373 94.911 30.1387 94.463 29.968C94.015 29.7973 93.4763 29.712 92.847 29.712C91.9617 29.712 91.2737 29.8987 90.783 30.272C90.2923 30.6347 90.047 31.1467 90.047 31.808C90.047 32.3733 90.2603 32.8 90.687 33.088C91.1243 33.3653 91.791 33.6107 92.687 33.824C93.6577 34.0587 94.4203 34.2773 94.975 34.48C95.5297 34.672 95.9883 34.9653 96.351 35.36C96.7243 35.7547 96.911 36.2827 96.911 36.944C96.911 37.5733 96.735 38.128 96.383 38.608C96.0417 39.088 95.5563 39.4613 94.927 39.728C94.2977 39.9947 93.5777 40.128 92.767 40.128ZM103.003 39.056C103.376 39.088 103.563 39.2587 103.563 39.568C103.563 39.7493 103.494 39.888 103.355 39.984C103.227 40.0693 103.03 40.1013 102.763 40.08L102.331 40.048C101.478 39.984 100.848 39.728 100.443 39.28C100.038 38.832 99.8351 38.1547 99.8351 37.248V33.232H98.7631C98.5818 33.232 98.4378 33.1893 98.3311 33.104C98.2351 33.008 98.1871 32.8853 98.1871 32.736C98.1871 32.576 98.2351 32.448 98.3311 32.352C98.4378 32.256 98.5818 32.208 98.7631 32.208H99.8351V30.4C99.8351 30.1973 99.8938 30.0427 100.011 29.936C100.128 29.8187 100.288 29.76 100.491 29.76C100.683 29.76 100.838 29.8187 100.955 29.936C101.072 30.0427 101.131 30.1973 101.131 30.4V32.208H102.907C103.078 32.208 103.211 32.256 103.307 32.352C103.414 32.448 103.467 32.576 103.467 32.736C103.467 32.8853 103.414 33.008 103.307 33.104C103.211 33.1893 103.078 33.232 102.907 33.232H101.131V37.312C101.131 37.8987 101.248 38.3253 101.483 38.592C101.728 38.848 102.091 38.992 102.571 39.024L103.003 39.056ZM108.673 40.112C107.937 40.112 107.286 39.9467 106.721 39.616C106.166 39.2853 105.734 38.816 105.425 38.208C105.126 37.5893 104.977 36.8747 104.977 36.064C104.977 35.2533 105.126 34.544 105.425 33.936C105.734 33.3173 106.166 32.8427 106.721 32.512C107.286 32.1813 107.937 32.016 108.673 32.016C109.409 32.016 110.059 32.1813 110.625 32.512C111.19 32.8427 111.622 33.3173 111.921 33.936C112.23 34.544 112.385 35.2533 112.385 36.064C112.385 36.8747 112.23 37.5893 111.921 38.208C111.622 38.816 111.19 39.2853 110.625 39.616C110.059 39.9467 109.409 40.112 108.673 40.112ZM108.673 39.04C109.441 39.04 110.027 38.7893 110.433 38.288C110.849 37.776 111.057 37.0347 111.057 36.064C111.057 35.1147 110.849 34.384 110.433 33.872C110.017 33.3493 109.43 33.088 108.673 33.088C107.915 33.088 107.329 33.3493 106.913 33.872C106.497 34.384 106.289 35.1147 106.289 36.064C106.289 37.024 106.491 37.76 106.897 38.272C107.313 38.784 107.905 39.04 108.673 39.04ZM118.772 32.048C119.22 32.016 119.444 32.1973 119.444 32.592C119.444 32.7627 119.396 32.9013 119.3 33.008C119.204 33.104 119.038 33.1627 118.804 33.184L118.324 33.232C117.609 33.296 117.076 33.552 116.724 34C116.382 34.4373 116.212 34.9547 116.212 35.552V39.44C116.212 39.6533 116.153 39.8133 116.036 39.92C115.918 40.0267 115.764 40.08 115.572 40.08C115.38 40.08 115.22 40.0267 115.092 39.92C114.974 39.8027 114.916 39.6427 114.916 39.44V32.688C114.916 32.4853 114.98 32.3307 115.108 32.224C115.236 32.1067 115.39 32.048 115.572 32.048C115.742 32.048 115.886 32.1067 116.004 32.224C116.121 32.3307 116.18 32.48 116.18 32.672V33.568C116.404 33.0987 116.718 32.7413 117.124 32.496C117.54 32.2507 118.014 32.1067 118.548 32.064L118.772 32.048ZM127.032 38.192C127.149 38.192 127.251 38.24 127.336 38.336C127.421 38.432 127.464 38.5547 127.464 38.704C127.464 38.9707 127.277 39.216 126.904 39.44C126.52 39.664 126.115 39.8347 125.688 39.952C125.261 40.0587 124.845 40.112 124.44 40.112C123.235 40.112 122.28 39.7547 121.576 39.04C120.883 38.3253 120.536 37.3387 120.536 36.08C120.536 35.28 120.691 34.576 121 33.968C121.309 33.3493 121.741 32.8693 122.296 32.528C122.861 32.1867 123.501 32.016 124.216 32.016C125.229 32.016 126.035 32.3467 126.632 33.008C127.229 33.6693 127.528 34.5653 127.528 35.696C127.528 35.9093 127.485 36.064 127.4 36.16C127.315 36.256 127.176 36.304 126.984 36.304H121.832C121.928 38.1387 122.797 39.056 124.44 39.056C124.856 39.056 125.213 39.0027 125.512 38.896C125.811 38.7787 126.131 38.624 126.472 38.432C126.749 38.272 126.936 38.192 127.032 38.192ZM124.232 33.024C123.549 33.024 123 33.2373 122.584 33.664C122.179 34.0907 121.939 34.6933 121.864 35.472H126.392C126.371 34.6827 126.173 34.08 125.8 33.664C125.427 33.2373 124.904 33.024 124.232 33.024Z" fill="white"/>
</g>
<defs>
<clipPath id="clip0_0_159">
<rect width="170" height="54" fill="white"/>
</clipPath>
</defs>
</svg>
